<svg version="1.1" id="Layer_1" xmlns="http://www.w3.org/2000/svg" xmlns:xlink="http://www.w3.org/1999/xlink" x="0px" y="0px"
	 width="100%" viewBox="0 0 256 443" enable-background="new 0 0 256 443" xml:space="preserve">

<path fill="#2F9F42" opacity="1.000000" stroke="none" 
	d="
M1.000000,122.468658 
	C6.828708,122.045769 12.657602,122.075150 18.486076,122.141426 
	C25.864923,122.225334 29.324663,125.512711 29.339779,132.751862 
	C29.390564,157.075806 29.387730,181.399994 29.341682,205.723953 
	C29.328285,212.800140 25.986574,216.082443 18.921803,216.148163 
	C13.257936,216.200882 7.593063,216.145355 1.464318,216.068924 
	C1.000000,184.979111 1.000000,153.958206 1.000000,122.468658 
z"/>
<path fill="#2F9F42" opacity="1.000000" stroke="none" 
	d="
M1.000000,235.468658 
	C6.995682,235.033157 12.991864,235.029068 18.986914,235.109406 
	C25.721260,235.199646 29.311131,238.571854 29.329554,245.177063 
	C29.398312,269.830627 29.397829,294.484619 29.329542,319.138153 
	C29.311739,325.565552 25.817400,328.992767 19.422609,329.097992 
	C13.594036,329.193909 7.762496,329.109497 1.466131,329.052277 
	C1.000000,297.979095 1.000000,266.958221 1.000000,235.468658 
z"/>
<path fill="#2F9F42" opacity="1.000000" stroke="none" 
	d="
M1.000000,348.468658 
	C6.996145,348.026459 12.992805,348.012939 18.988298,348.089996 
	C25.746681,348.176819 29.310423,351.522491 29.329159,358.149658 
	C29.398861,382.803284 29.397295,407.457397 29.330030,432.111053 
	C29.312536,438.522308 25.806019,441.971832 19.423574,442.083038 
	C13.595147,442.184601 7.763441,442.098022 1.466590,442.047180 
	C1.000000,410.979095 1.000000,379.958221 1.000000,348.468658 
z"/>
<path fill="#CE1A1E" opacity="1.000000" stroke="none" 
	d="
M1.000000,9.468657 
	C2.071135,9.151590 3.241076,9.074609 4.198781,9.488602 
	C22.457376,17.381374 34.621929,37.141071 34.131592,58.002735 
	C33.651478,78.429634 20.488720,97.214256 1.363250,104.124084 
	C1.000000,72.645775 1.000000,41.291542 1.000000,9.468657 
z"/>
<path fill="#30A043" opacity="1.000000" stroke="none" 
	d="
M142.273560,60.000061 
	C142.272964,71.155624 142.302338,81.811302 142.261551,92.466713 
	C142.231995,100.186806 139.094635,103.331001 131.295715,103.343117 
	C107.320747,103.380363 83.345657,103.380363 59.370693,103.343628 
	C51.432358,103.331459 48.244476,100.072937 48.236000,92.043877 
	C48.210861,68.235374 48.208294,44.426815 48.238277,20.618328 
	C48.248100,12.819565 51.707294,9.329869 59.537464,9.315298 
	C83.345901,9.270989 107.154503,9.276161 130.962982,9.311805 
	C138.876938,9.323653 142.238449,12.688941 142.261551,20.540585 
	C142.299759,33.526978 142.272934,46.513557 142.273560,60.000061 
z"/>
<path fill="#2FA042" opacity="1.000000" stroke="none" 
	d="
M220.000000,235.093170 
	C228.658676,235.094208 236.818039,235.030731 244.975830,235.116531 
	C251.573273,235.185913 255.129242,238.711182 255.146652,245.381851 
	C255.210510,269.857727 255.206711,294.333954 255.150101,318.809845 
	C255.134521,325.547150 251.669632,329.081329 245.041275,329.097443 
	C220.398880,329.157379 195.756134,329.163208 171.113800,329.091461 
	C164.752853,329.072937 161.187485,325.506989 161.168686,319.137970 
	C161.096008,294.495636 161.095062,269.852844 161.167770,245.210526 
	C161.186996,238.697693 164.896301,235.147034 171.547104,235.118973 
	C187.531158,235.051529 203.515671,235.094650 220.000000,235.093170 
z"/>
<path fill="#30A043" opacity="1.000000" stroke="none" 
	d="
M255.179123,87.926254 
	C255.171585,90.411964 255.272339,92.417313 255.135498,94.406311 
	C254.768539,99.739380 251.539307,103.248108 246.221680,103.274361 
	C220.914963,103.399345 195.607010,103.398811 170.300232,103.281036 
	C164.773254,103.255310 161.208878,99.610420 161.187195,94.091408 
	C161.088455,68.950813 161.069092,43.809193 161.203018,18.668907 
	C161.235184,12.627356 165.414062,9.333248 172.378052,9.313986 
	C189.360611,9.267013 206.343384,9.297333 223.326080,9.296841 
	C229.985962,9.296647 236.645905,9.278855 243.305710,9.302145 
	C251.880859,9.332134 255.160248,12.540667 255.169434,21.006193 
	C255.193481,43.150257 255.178513,65.294357 255.179123,87.926254 
z"/>
<path fill="#2FA042" opacity="1.000000" stroke="none" 
	d="
M77.000107,329.125000 
	C70.506195,329.123749 64.511292,329.189026 58.518547,329.103394 
	C51.886230,329.008667 48.276188,325.513550 48.258213,318.912415 
	C48.191563,294.437286 48.194256,269.961761 48.256836,245.486618 
	C48.274235,238.683670 51.956585,235.127304 58.879078,235.114517 
	C83.187813,235.069611 107.496735,235.068436 131.805466,235.114456 
	C138.756622,235.127625 142.234665,238.612000 142.248718,245.593842 
	C142.297699,269.902557 142.294510,294.211487 142.252228,318.520203 
	C142.239563,325.796844 138.842972,329.096802 131.445679,329.111755 
	C113.463875,329.148102 95.481941,329.124481 77.000107,329.125000 
z"/>
<path fill="#2FA042" opacity="1.000000" stroke="none" 
	d="
M138.866272,440.010315 
	C136.193481,440.887085 133.831146,442.017792 131.462784,442.030640 
	C107.308456,442.161255 83.153099,442.137543 58.998150,442.092957 
	C51.730675,442.079529 48.259575,438.613129 48.246372,431.356110 
	C48.202427,407.201172 48.203381,383.046021 48.246780,358.891083 
	C48.259781,351.654083 51.782360,348.105011 58.956055,348.092773 
	C83.277596,348.051331 107.599319,348.048157 131.920822,348.096924 
	C138.631851,348.110413 142.221725,351.580872 142.239487,358.189545 
	C142.305725,382.844177 142.356110,407.499878 142.131104,432.152618 
	C142.107941,434.692322 140.204758,437.214874 138.866272,440.010315 
z"/>
<path fill="#2FA042" opacity="1.000000" stroke="none" 
	d="
M142.271942,135.151886 
	C142.271988,158.442642 142.278061,181.254898 142.268478,204.067139 
	C142.264587,213.337555 139.388840,216.159988 129.962036,216.162643 
	C106.650253,216.169220 83.338463,216.173340 60.026688,216.159454 
	C51.353703,216.154297 48.240776,213.085007 48.234196,204.501587 
	C48.216206,181.023300 48.216961,157.544983 48.233547,134.066696 
	C48.239719,125.328354 51.494736,122.142052 60.378555,122.137863 
	C83.523827,122.126945 106.669106,122.129341 129.814377,122.136139 
	C139.395538,122.138954 142.208771,124.982025 142.271942,135.151886 
z"/>
</svg>