<svg version="1.1" id="Layer_1" xmlns="http://www.w3.org/2000/svg" xmlns:xlink="http://www.w3.org/1999/xlink" x="0px" y="0px"
	 width="100%" viewBox="0 0 188 330" enable-background="new 0 0 188 330" xml:space="preserve">
<path fill="#FAFAFA" opacity="1.000000" stroke="none" 
	d="
M1.000000,90.468658 
	C4.484134,90.023796 7.969226,90.004562 11.452167,90.082039 
	C16.025240,90.183769 18.746628,92.608330 18.777224,97.131401 
	C18.900677,115.382362 18.902655,133.635315 18.760035,151.886063 
	C18.724674,156.410843 15.888238,158.782730 11.381805,158.938934 
	C8.232498,159.048096 5.077358,158.988998 1.462412,159.002533 
	C1.000000,136.312439 1.000000,113.624878 1.000000,90.468658 
z"/>
<path fill="#FBFBFB" opacity="1.000000" stroke="none" 
	d="
M1.000000,256.468658 
	C4.484695,256.006287 7.972759,255.918213 11.453244,256.042450 
	C15.961488,256.203400 18.744381,258.617157 18.775003,263.145416 
	C18.898443,281.399750 18.883379,299.655792 18.775949,317.910339 
	C18.750616,322.215210 16.144073,324.627686 11.878942,324.889465 
	C8.571608,325.092468 5.243235,324.952667 1.462107,324.982605 
	C1.000000,302.312439 1.000000,279.624878 1.000000,256.468658 
z"/>
<path fill="#FBFBFB" opacity="1.000000" stroke="none" 
	d="
M1.000000,173.468658 
	C4.648357,173.033157 8.305667,172.918182 11.942745,173.137970 
	C16.221661,173.396561 18.771160,175.843262 18.792679,180.150757 
	C18.883818,198.395706 18.889204,216.641815 18.773720,234.886520 
	C18.746559,239.177689 16.090656,241.592194 11.872717,241.902832 
	C8.572089,242.145889 5.241844,241.986771 1.462380,242.003174 
	C1.000000,219.312439 1.000000,196.624878 1.000000,173.468658 
z"/>
<path fill="#FBFBFB" opacity="1.000000" stroke="none" 
	d="
M1.000000,8.468657 
	C14.270422,14.319355 21.058720,25.293949 21.858290,39.507217 
	C22.748940,55.339531 15.704844,67.353508 1.356090,75.050247 
	C1.000000,52.979103 1.000000,30.958210 1.000000,8.468657 
z"/>
<path fill="#FCFBFC" opacity="1.000000" stroke="none" 
	d="
M36.229218,256.772186 
	C38.067352,256.372650 39.533604,255.990417 41.000690,255.987167 
	C58.163975,255.949356 75.327545,255.927750 92.490692,255.993027 
	C99.214806,256.018616 101.522278,258.332306 101.537598,265.024567 
	C101.576492,282.021210 101.566444,299.018250 101.483345,316.014679 
	C101.450508,322.731201 99.205208,324.912109 92.378319,324.933868 
	C75.381691,324.988037 58.384624,324.990967 41.388046,324.928711 
	C34.771347,324.904480 32.448433,322.554565 32.419006,315.776703 
	C32.345219,298.780212 32.244961,281.780609 32.546043,264.789185 
	C32.592583,262.162567 34.702194,259.572510 36.229218,256.772186 
z"/>
<path fill="#FBFBFB" opacity="1.000000" stroke="none" 
	d="
M101.589561,106.060982 
	C101.575089,120.879913 101.620865,135.209610 101.519974,149.538254 
	C101.467857,156.939301 99.354416,158.944351 91.867218,158.962097 
	C75.205605,159.001602 58.543591,159.027924 41.882240,158.951294 
	C34.498768,158.917343 32.412773,156.754211 32.391075,149.335266 
	C32.342350,132.673355 32.334396,116.011093 32.385757,99.349213 
	C32.407898,92.167686 34.531490,90.029976 41.574234,90.012070 
	C58.069340,89.970123 74.564796,89.955154 91.059769,90.017799 
	C99.900787,90.051376 101.543594,91.783623 101.583855,100.572784 
	C101.591484,102.238930 101.587601,103.905136 101.589561,106.060982 
z"/>
<path fill="#FCFCFC" opacity="1.000000" stroke="none" 
	d="
M101.581360,183.325439 
	C101.569801,199.941238 101.605301,216.097473 101.522232,232.253113 
	C101.482887,239.905243 99.339355,241.969543 91.623070,241.987747 
	C75.133965,242.026627 58.644577,242.033798 42.155548,241.979965 
	C34.529034,241.955063 32.416870,239.797043 32.396439,232.097107 
	C32.352684,215.608002 32.348820,199.118652 32.386082,182.629532 
	C32.402962,175.160248 34.478859,173.023865 41.825638,173.006393 
	C58.481071,172.966766 75.137093,172.955368 91.792107,173.057281 
	C99.613602,173.105148 101.348335,174.979858 101.581360,183.325439 
z"/>
<path fill="#FCFCFC" opacity="1.000000" stroke="none" 
	d="
M83.980881,76.016922 
	C69.828835,76.016106 56.172821,76.069679 42.517529,75.993912 
	C34.358364,75.948639 32.415520,73.993385 32.393608,65.999344 
	C32.348415,49.512653 32.342068,33.025726 32.376797,16.539013 
	C32.392143,9.251822 34.646935,7.025816 41.971653,7.014529 
	C58.458229,6.989123 74.945023,6.983374 91.431465,7.042259 
	C99.503151,7.071089 101.582848,9.136688 101.594124,17.030111 
	C101.617210,33.183701 101.628510,49.337662 101.541565,65.490913 
	C101.493904,74.344368 99.834869,75.894844 90.971535,75.978813 
	C88.806839,75.999321 86.641998,76.004601 83.980881,76.016922 
z"/>
<path fill="#FEFEFE" opacity="1.000000" stroke="none" 
	d="
M162.995590,173.006577 
	C167.824860,173.050095 172.159866,172.972946 176.484711,173.147324 
	C181.870178,173.364487 184.045959,175.551727 184.063919,180.879608 
	C184.123459,198.536194 184.120209,216.193192 184.064102,233.849808 
	C184.045883,239.585342 181.631058,241.965210 175.783875,241.984497 
	C158.460449,242.041687 141.136505,242.048203 123.813179,241.973663 
	C117.569725,241.946793 115.069794,239.376831 115.048874,233.095047 
	C114.991730,215.938156 114.982445,198.780853 115.038368,181.623978 
	C115.058037,175.589752 117.503960,173.082504 123.519196,173.037231 
	C136.511093,172.939423 149.504196,173.001099 162.995590,173.006577 
z"/>
<path fill="#FEFEFE" opacity="1.000000" stroke="none" 
	d="
M120.003403,75.529884 
	C116.221283,73.995384 115.013336,71.343491 115.018440,67.847984 
	C115.043968,50.379444 114.979195,32.910656 115.047821,15.442349 
	C115.070831,9.584660 117.709816,7.072476 123.721024,7.055519 
	C140.856628,7.007182 157.992661,6.997141 175.128113,7.070121 
	C181.936447,7.099117 184.087814,9.335636 184.095108,16.056683 
	C184.113525,33.026165 184.109100,49.995728 184.077042,66.965187 
	C184.063934,73.906723 182.110092,75.986732 175.273514,75.975258 
	C156.979034,75.944557 138.684753,75.799461 120.003403,75.529884 
z"/>
</svg>