<?xml version="1.0" encoding="UTF-8"?>
<svg version="1.1" viewBox="0 0 1269 2048" width="396" height="639" xmlns="http://www.w3.org/2000/svg">
<path transform="translate(0)" d="m0 0h1269v2048h-1269z" fill="#EEEEFC"/>
<path transform="translate(773,4)" d="m0 0h381v1l-9 1 17 4 5 3 3 5 6 3 3 7 4 10 1 20v334l-1 20-3 11-6 10-10 10-12 5-4 1h-372l-10-2-11-8-10-10-5-7-2-7v-375l4-11 6-9 9-9 12-6z" fill="#38A04C"/>
<path transform="translate(919,1065)" d="m0 0h104l125 1 11 3 5 3 8 8 6 9 4 9 2 19v339l-1 22-4 10-9 11-8 6-10 4-5 1h-368l-14-3-9-5-10-9-6-10-2-7-1-36v-37l1-51v-252l3-8 6-9 4-5 14-10 7-2z" fill="#38A04C"/>
<path transform="translate(247,534)" d="m0 0h366l9 2 11 6 10 9 6 7 4 9v282l-1 79-2 25-7 10-10 10-5 3-13 3h-368l-10-2-11-6-10-9-6-10-2-6v-380l5-10 11-12 7-6 8-3z" fill="#38A04C"/>
<path transform="translate(242,4)" d="m0 0h382v1l-6 1 18 6 1 4 5 1v2h2l4 10 3 6 1 269 1 31v58l-1 21-2 9-7 10-5 6-8 5-6 2-1 3h-373l-13-2-10-5-12-12-5-8-2-10-1-342 1-34 6-12 10-12 14-7z" fill="#38A04C"/>
<path transform="translate(240,1066)" d="m0 0h372l13 2 10 6 7 6v2l3 1 6 9 2 12-1 44v134l1 41v128l-1 21-2 11-5 10-7 7-3 1-5 5-7 3-5 1h-372l-13-3-10-6-7-7-4-6-3-8-1-6v-377l3-8 9-10 9-8 7-4z" fill="#38A04C"/>
<path transform="translate(243,1597)" d="m0 0h377l11 5 8 5 9 10 5 12v351l-1 26-2 9-8 11-11 10-5 2-6 1h-380l-10-3-11-8-7-9-3-8-1-7v-376l4-8 12-13 9-7z" fill="#38A04C"/>
<path transform="translate(0,1597)" d="m0 0h87l11 4 8 5 7 7 7 13v2h2v2h-2l2 31v37l-1 26v50l1 17 1 40-1 140-1 35-2 10-7 10-12 11-11 2h-89z" fill="#38A04C"/>
<path transform="translate(0,1066)" d="m0 0h80l11 1 10 5 9 8 8 11 3 6-1 46v161l2 1v148l-2 26-6 12-11 12-9 5-9 2-85 1z" fill="#38A04C"/>
<path transform="translate(0,534)" d="m0 0h75l16 1 5 4 8 6 13 11 3 5v344l1 39-2 9-6 9-10 10-9 5-11 2-83 1z" fill="#38A04C"/>
<path transform="translate(0,4)" d="m0 0 16 8 17 10 14 10 11 9 8 8 8 7 11 12 13 17 7 10 10 17 8 15 8 20 7 28 4 22 1 9v42l-3 18-7 33-8 24-5 11-8 15-8 12h-2l-1 4-8 10-2 3h-2l-1 3h-2l-2 4-4 5h2l-2 4-4 4h-3l-1 4-3 3h-3v2l-2 1-1 3-5-1v2l-4 2-3 3-3-1v4l-5 5-4-1-1 6-9 2-3 1-2-1v2h-5l1 6-1 2-7 2h-3l-1 4 2 1h-10z" fill="#CB1F22"/>
<path transform="translate(653,1629)" d="m0 0h1l1 49h2l2 10 1 48v253l-1 17-3 7h-2l-2 5-9 10-11 9-9 3-5 3-3 5h-359l-1-3 1-2-15-1-11-5 3-1 7 2h380l9-2 11-9 8-10 2-5 1-6 1-26z" fill="#CBD7E3"/>
<path transform="translate(649,558)" d="m0 0 3 3 2 5v69l4 1 1 10 1 37v138l-1 70-5 1-1 48h5v3l-5-1v8l-3 3 1-25 1-79v-282z" fill="#CBD7E3"/>
<path transform="translate(1183,38)" d="m0 0h1l1 17 1 100 1 22 3 23v41l1 71v82l-2 19-4 7h-3l-2 6-3 6-10 11-8 4-6 2h-5l4-2 12-5 10-10 6-11 2-9 1-20z" fill="#CBD7E3"/>
<path transform="translate(772)" d="m0 0h381l-1 2 7 3v4l-10-1-6-2v-1h-374z" fill="#CBD7E3"/>
<path transform="translate(244)" d="m0 0h377l-1 2 3 2-385 1 3-4z" fill="#CBD7E3"/>
<path transform="translate(1182,1098)" d="m0 0h1l2 18 1 25v86l2 34 1 53v14l1 22v37l-1 11 2 5v49l-1 14-3 9-4 3v-361z" fill="#CBD7E3"/>
<path transform="translate(649,953)" d="m0 0 1 3-8 11-9 8-6 3-14 3-50 1h-240l-59-1-20-1-4-2h375l13-3 8-6 8-8z" fill="#CBD7E3"/>
<path transform="translate(652,1289)" d="m0 0 2 1v3h4l1 2 1 46v115l-1 17-3 9-2 1 1-7 1-25v-42l-1-8-1 41h-1l-1-119z" fill="#CBD7E3"/>
<path transform="translate(1162,1504)" d="m0 0 2 1-4 3-12 3-12 1-42 1h-220l-78-1-19-1-5-1v-1h375l13-4z" fill="#CBD7E3"/>
<path transform="translate(240,1509)" d="m0 0 377 1v1l-24 1-75 1h-197l-65-1-16-2z" fill="#CBD7E3"/>
<path transform="translate(105,2031)" d="m0 0 2 1-6 6-10 3-6 1-1 5-1 1h-83v-9l89-1 11-2z" fill="#CBD7E3"/>
<path transform="translate(652,314)" d="m0 0 1 2h6l1 31v32l-1 31-2 10-4 6-4 4-5 6h-3l2-4 6-9 2-9 1-21z" fill="#CFD9E5"/>
<path transform="translate(122,1850)" d="m0 0h1l1 32 1-11 2 2 1 35v45l-1 37-1 17-3 5-3 2 1-43z" fill="#CBD7E3"/>
<path transform="translate(122,1305)" d="m0 0h1l1 101 1-42 2 1v78l-1 26-2 10-5 8-2-1 2-7 2-26z" fill="#CBD7E3"/>
<path transform="translate(58,410)" d="m0 0 5 1-5 5-4 5-3 1-2-1-1 4-2 1-1 3-12 4-3 2v2h-3v2h2v2l-5 1h-2l-4 1 1 5-2 1h-7l-2-1 1-5 10-1v-8h5v-2l5-1 7-1h2v-6h3l2 1 2-4 3-1v-4h4l4-4h2z" fill="#CAD6E2"/>
<path transform="translate(29,431)" d="m0 0m-5 1h5l1 5h-3v2h2v2l-5 1h-2l-4 1 1 5-2 1h-7l-2-1 1-5 10-1v-8h5z" fill="#C4C9CF"/>
<path transform="translate(92,375)" d="m0 0 2 3-5 7-2 1-3 5h-3l-2-1 7-9 5-4z" fill="#C2D3DA"/>
<path transform="translate(14,442)" d="m0 0h4l1 6-2 1h-7l-2-1 1-5z" fill="#C3D5DA"/>
<path transform="translate(120,911)" d="m0 0h1v29h4l-1 4-2 1-2 4z" fill="#CBD7E3"/>
<path transform="translate(1162,10)" d="m0 0h5l7 6 1 4-5-1-3-3-2-4z" fill="#CAD7E1"/>
<path transform="translate(5,443)" d="m0 0 3 1v4l2 1h-10l1-4z" fill="#C66567"/>
<path transform="translate(653,1104)" d="m0 0 5 1v2l-4 1-1 20h-1v-21z" fill="#CBD7E3"/>
<path transform="translate(122,1666)" d="m0 0h1l1 10v17 3l-2-1z" fill="#CBD7E3"/>
<path transform="translate(0,1)" d="m0 0 11 7 5 3-2 1-10-5-4-3z" fill="#CBD7E3"/>
<path transform="translate(87,383)" d="m0 0v3l-3 5h-3l-2-1z" fill="#B6BCBA"/>
</svg>
